<mxfile host="Electron" agent="Mozilla/5.0 (Windows NT 10.0; Win64; x64) AppleWebKit/537.36 (KHTML, like Gecko) draw.io/24.7.5 Chrome/126.0.6478.183 Electron/31.3.0 Safari/537.36" version="24.7.5">
  <diagram name="Page-1" id="gI0PFV1aYqmWlTs2NGL_">
    <mxGraphModel dx="751" dy="449" grid="1" gridSize="10" guides="1" tooltips="1" connect="1" arrows="1" fold="1" page="1" pageScale="1" pageWidth="850" pageHeight="1100" math="0" shadow="0">
      <root>
        <mxCell id="0" />
        <mxCell id="1" parent="0" />
        <mxCell id="4lu8iwKWD-q7wUPmNmo7-43" style="edgeStyle=orthogonalEdgeStyle;rounded=0;orthogonalLoop=1;jettySize=auto;html=1;exitX=1;exitY=0.5;exitDx=0;exitDy=0;entryX=0;entryY=0.5;entryDx=0;entryDy=0;fillColor=#e1d5e7;strokeColor=#9673a6;" edge="1" parent="1" source="4lu8iwKWD-q7wUPmNmo7-31" target="4lu8iwKWD-q7wUPmNmo7-42">
          <mxGeometry relative="1" as="geometry" />
        </mxCell>
        <mxCell id="4lu8iwKWD-q7wUPmNmo7-31" value="Command" style="html=1;whiteSpace=wrap;fillColor=#dae8fc;strokeColor=#6c8ebf;fillStyle=hatch;" vertex="1" parent="1">
          <mxGeometry x="80" y="375" width="60" height="50" as="geometry" />
        </mxCell>
        <mxCell id="4lu8iwKWD-q7wUPmNmo7-32" value="Handler" style="html=1;whiteSpace=wrap;fillStyle=hatch;fillColor=#dae8fc;strokeColor=#6c8ebf;" vertex="1" parent="1">
          <mxGeometry x="600" y="375" width="110" height="50" as="geometry" />
        </mxCell>
        <mxCell id="4lu8iwKWD-q7wUPmNmo7-33" value="&lt;span style=&quot;color: rgba(0, 0, 0, 0); font-family: monospace; font-size: 0px; text-align: start; text-wrap: nowrap;&quot;&gt;%3CmxGraphModel%3E%3Croot%3E%3CmxCell%20id%3D%220%22%2F%3E%3CmxCell%20id%3D%221%22%20parent%3D%220%22%2F%3E%3CmxCell%20id%3D%222%22%20value%3D%22Command%22%20style%3D%22html%3D1%3BwhiteSpace%3Dwrap%3B%22%20vertex%3D%221%22%20parent%3D%221%22%3E%3CmxGeometry%20x%3D%22220%22%20y%3D%22390%22%20width%3D%22110%22%20height%3D%2250%22%20as%3D%22geometry%22%2F%3E%3C%2FmxCell%3E%3C%2Froot%3E%3C%2FmxGraphModel%3E&lt;/span&gt;" style="html=1;whiteSpace=wrap;fillStyle=solid;fillColor=default;strokeColor=#6c8ebf;gradientColor=none;" vertex="1" parent="1">
          <mxGeometry x="300" y="330" width="250" height="140" as="geometry" />
        </mxCell>
        <mxCell id="4lu8iwKWD-q7wUPmNmo7-35" value="Pipeline Behavior" style="text;html=1;align=center;verticalAlign=middle;resizable=0;points=[];autosize=1;strokeColor=none;fillColor=none;" vertex="1" parent="1">
          <mxGeometry x="365" y="300" width="120" height="30" as="geometry" />
        </mxCell>
        <mxCell id="4lu8iwKWD-q7wUPmNmo7-36" value="validation" style="html=1;whiteSpace=wrap;fillColor=#dae8fc;strokeColor=#6c8ebf;fillStyle=hatch;" vertex="1" parent="1">
          <mxGeometry x="320" y="375" width="60" height="50" as="geometry" />
        </mxCell>
        <mxCell id="4lu8iwKWD-q7wUPmNmo7-38" value="Logging" style="html=1;whiteSpace=wrap;fillStyle=hatch;fillColor=#dae8fc;strokeColor=#6c8ebf;" vertex="1" parent="1">
          <mxGeometry x="470" y="375" width="50" height="50" as="geometry" />
        </mxCell>
        <mxCell id="4lu8iwKWD-q7wUPmNmo7-39" value="&lt;font style=&quot;font-size: 20px;&quot;&gt;...&lt;/font&gt;" style="html=1;whiteSpace=wrap;fillStyle=hatch;fillColor=#dae8fc;strokeColor=#6c8ebf;" vertex="1" parent="1">
          <mxGeometry x="390" y="385" width="50" height="30" as="geometry" />
        </mxCell>
        <mxCell id="4lu8iwKWD-q7wUPmNmo7-44" style="edgeStyle=orthogonalEdgeStyle;rounded=0;orthogonalLoop=1;jettySize=auto;html=1;fillColor=#e1d5e7;strokeColor=#9673a6;" edge="1" parent="1" source="4lu8iwKWD-q7wUPmNmo7-42" target="4lu8iwKWD-q7wUPmNmo7-33">
          <mxGeometry relative="1" as="geometry" />
        </mxCell>
        <mxCell id="4lu8iwKWD-q7wUPmNmo7-42" value="MediatR" style="html=1;whiteSpace=wrap;fillColor=#dae8fc;strokeColor=#6c8ebf;fillStyle=hatch;" vertex="1" parent="1">
          <mxGeometry x="180" y="375" width="70" height="50" as="geometry" />
        </mxCell>
        <mxCell id="4lu8iwKWD-q7wUPmNmo7-47" style="edgeStyle=orthogonalEdgeStyle;rounded=0;orthogonalLoop=1;jettySize=auto;html=1;fillColor=#e1d5e7;strokeColor=#9673a6;startArrow=classic;startFill=1;endArrow=none;endFill=0;" edge="1" parent="1">
          <mxGeometry relative="1" as="geometry">
            <mxPoint x="250" y="410" as="sourcePoint" />
            <mxPoint x="300" y="410" as="targetPoint" />
          </mxGeometry>
        </mxCell>
        <mxCell id="4lu8iwKWD-q7wUPmNmo7-49" style="edgeStyle=orthogonalEdgeStyle;rounded=0;orthogonalLoop=1;jettySize=auto;html=1;fillColor=#e1d5e7;strokeColor=#9673a6;" edge="1" parent="1" target="4lu8iwKWD-q7wUPmNmo7-32">
          <mxGeometry relative="1" as="geometry">
            <mxPoint x="550" y="400" as="sourcePoint" />
            <mxPoint x="320" y="420" as="targetPoint" />
          </mxGeometry>
        </mxCell>
        <mxCell id="4lu8iwKWD-q7wUPmNmo7-50" style="edgeStyle=orthogonalEdgeStyle;rounded=0;orthogonalLoop=1;jettySize=auto;html=1;fillColor=#e1d5e7;strokeColor=#9673a6;startArrow=classic;startFill=1;endArrow=none;endFill=0;" edge="1" parent="1">
          <mxGeometry relative="1" as="geometry">
            <mxPoint x="550" y="415" as="sourcePoint" />
            <mxPoint x="600" y="415" as="targetPoint" />
          </mxGeometry>
        </mxCell>
      </root>
    </mxGraphModel>
  </diagram>
</mxfile>
